<svg width="192" height="52" viewBox="0 0 192 52" fill="none" xmlns="http://www.w3.org/2000/svg">
<path d="M0.44 20L5.56 6H8.62L13.72 20H10.86L7.06 9.08L3.26 20H0.44ZM2.7 16.82L3.42 14.72H10.54L11.24 16.82H2.7ZM15.5202 20V6H20.3202C21.9468 6 23.2868 6.29333 24.3402 6.88C25.4068 7.45333 26.1935 8.26667 26.7002 9.32C27.2202 10.36 27.4802 11.5867 27.4802 13C27.4802 14.4133 27.2202 15.6467 26.7002 16.7C26.1935 17.74 25.4068 18.5533 24.3402 19.14C23.2868 19.7133 21.9402 20 20.3002 20H15.5202ZM18.2202 17.68H20.1602C21.3068 17.68 22.2135 17.4933 22.8802 17.12C23.5468 16.7467 24.0202 16.2133 24.3002 15.52C24.5802 14.8133 24.7202 13.9733 24.7202 13C24.7202 12.0133 24.5802 11.1733 24.3002 10.48C24.0202 9.77333 23.5468 9.23333 22.8802 8.86C22.2135 8.48667 21.3068 8.3 20.1602 8.3H18.2202V17.68ZM29.7389 20V6H32.9589L37.2789 14.72L41.5589 6H44.7789V20H42.0789V10.58L38.3389 18.02H36.1989L32.4389 10.58V20H29.7389ZM47.4928 20V6H50.1928V20H47.4928ZM52.8834 20V6H55.5834L62.0234 15.66V6H64.7234V20H62.0234L55.5834 10.38V20H52.8834ZM67.4147 20V6H70.1147V20H67.4147ZM77.6253 20.24C76.612 20.24 75.7053 20.0667 74.9053 19.72C74.1186 19.3733 73.492 18.8667 73.0253 18.2C72.572 17.5333 72.3386 16.7267 72.3253 15.78H75.1853C75.1986 16.1933 75.3053 16.5667 75.5053 16.9C75.7053 17.2333 75.9786 17.5 76.3253 17.7C76.6853 17.8867 77.112 17.98 77.6053 17.98C78.032 17.98 78.3986 17.9133 78.7053 17.78C79.0253 17.6333 79.272 17.4333 79.4453 17.18C79.6186 16.9267 79.7053 16.6267 79.7053 16.28C79.7053 15.8667 79.6053 15.5267 79.4053 15.26C79.2186 14.9933 78.952 14.7667 78.6053 14.58C78.2586 14.3933 77.8586 14.2267 77.4053 14.08C76.9653 13.92 76.4986 13.76 76.0053 13.6C74.912 13.24 74.072 12.76 73.4853 12.16C72.912 11.56 72.6253 10.7667 72.6253 9.78C72.6253 8.94 72.8253 8.22 73.2253 7.62C73.6386 7.02 74.2053 6.56 74.9253 6.24C75.6453 5.92 76.4653 5.76 77.3853 5.76C78.332 5.76 79.1586 5.92667 79.8653 6.26C80.5853 6.58 81.152 7.04667 81.5653 7.66C81.992 8.27333 82.212 8.99333 82.2253 9.82H79.3453C79.332 9.51333 79.2386 9.22667 79.0653 8.96C78.9053 8.68 78.6786 8.46 78.3853 8.3C78.092 8.12667 77.7453 8.04 77.3453 8.04C76.9986 8.02667 76.6786 8.08 76.3853 8.2C76.1053 8.32 75.8786 8.5 75.7053 8.74C75.5453 8.96667 75.4653 9.25333 75.4653 9.6C75.4653 9.93333 75.5453 10.2133 75.7053 10.44C75.8786 10.6667 76.112 10.8667 76.4053 11.04C76.6986 11.2 77.0453 11.3533 77.4453 11.5C77.8453 11.6333 78.2786 11.7733 78.7453 11.92C79.4386 12.16 80.0786 12.4467 80.6653 12.78C81.252 13.1 81.7186 13.52 82.0653 14.04C82.412 14.56 82.5853 15.2467 82.5853 16.1C82.5853 16.8333 82.392 17.5133 82.0053 18.14C81.6186 18.7667 81.0586 19.2733 80.3253 19.66C79.6053 20.0467 78.7053 20.24 77.6253 20.24ZM87.9598 20V8.18H83.8598V6H94.7398V8.18H90.6398V20H87.9598ZM96.6139 20V6H101.834C102.967 6 103.901 6.19333 104.634 6.58C105.367 6.96667 105.914 7.48667 106.274 8.14C106.634 8.78 106.814 9.49333 106.814 10.28C106.814 11.0267 106.641 11.7267 106.294 12.38C105.947 13.02 105.401 13.54 104.654 13.94C103.921 14.3267 102.974 14.52 101.814 14.52H99.3139V20H96.6139ZM103.874 20L100.994 13.84H103.914L106.954 20H103.874ZM99.3139 12.56H101.674C102.487 12.56 103.087 12.36 103.474 11.96C103.861 11.56 104.054 11.0333 104.054 10.38C104.054 9.72667 103.861 9.21333 103.474 8.84C103.101 8.45333 102.501 8.26 101.674 8.26H99.3139V12.56ZM108.272 20L113.392 6H116.452L121.552 20H118.692L114.892 9.08L111.092 20H108.272ZM110.532 16.82L111.252 14.72H118.372L119.072 16.82H110.532ZM128.871 20.24C127.471 20.24 126.265 19.94 125.251 19.34C124.238 18.7267 123.458 17.88 122.911 16.8C122.365 15.7067 122.091 14.4467 122.091 13.02C122.091 11.5933 122.365 10.3333 122.911 9.24C123.458 8.14667 124.238 7.29333 125.251 6.68C126.265 6.06667 127.471 5.76 128.871 5.76C130.578 5.76 131.971 6.18 133.051 7.02C134.131 7.86 134.805 9.04667 135.071 10.58H132.111C131.938 9.83333 131.578 9.25333 131.031 8.84C130.485 8.41333 129.758 8.2 128.851 8.2C128.011 8.2 127.291 8.4 126.691 8.8C126.091 9.18667 125.631 9.74 125.311 10.46C125.005 11.1667 124.851 12.02 124.851 13.02C124.851 14.0067 125.005 14.86 125.311 15.58C125.631 16.3 126.091 16.8533 126.691 17.24C127.291 17.6267 128.011 17.82 128.851 17.82C129.758 17.82 130.485 17.6267 131.031 17.24C131.578 16.84 131.938 16.2867 132.111 15.58H135.071C134.805 17.0333 134.131 18.1733 133.051 19C131.971 19.8267 130.578 20.24 128.871 20.24ZM137.337 20V6H140.037V20H137.337ZM146.467 20.24C145.561 20.24 144.761 20.0667 144.067 19.72C143.387 19.3733 142.854 18.8667 142.467 18.2C142.094 17.52 141.907 16.7 141.907 15.74H144.607C144.607 16.1667 144.674 16.54 144.807 16.86C144.941 17.1667 145.134 17.4067 145.387 17.58C145.654 17.74 145.994 17.82 146.407 17.82C146.794 17.82 147.114 17.7467 147.367 17.6C147.621 17.44 147.801 17.22 147.907 16.94C148.027 16.6467 148.087 16.3 148.087 15.9V6H150.787V15.9C150.787 17.3 150.394 18.3733 149.607 19.12C148.834 19.8667 147.787 20.24 146.467 20.24ZM158.328 20.24C157.315 20.24 156.408 20.0667 155.608 19.72C154.822 19.3733 154.195 18.8667 153.728 18.2C153.275 17.5333 153.042 16.7267 153.028 15.78H155.888C155.902 16.1933 156.008 16.5667 156.208 16.9C156.408 17.2333 156.682 17.5 157.028 17.7C157.388 17.8867 157.815 17.98 158.308 17.98C158.735 17.98 159.102 17.9133 159.408 17.78C159.728 17.6333 159.975 17.4333 160.148 17.18C160.322 16.9267 160.408 16.6267 160.408 16.28C160.408 15.8667 160.308 15.5267 160.108 15.26C159.922 14.9933 159.655 14.7667 159.308 14.58C158.962 14.3933 158.562 14.2267 158.108 14.08C157.668 13.92 157.202 13.76 156.708 13.6C155.615 13.24 154.775 12.76 154.188 12.16C153.615 11.56 153.328 10.7667 153.328 9.78C153.328 8.94 153.528 8.22 153.928 7.62C154.342 7.02 154.908 6.56 155.628 6.24C156.348 5.92 157.168 5.76 158.088 5.76C159.035 5.76 159.862 5.92667 160.568 6.26C161.288 6.58 161.855 7.04667 162.268 7.66C162.695 8.27333 162.915 8.99333 162.928 9.82H160.048C160.035 9.51333 159.942 9.22667 159.768 8.96C159.608 8.68 159.382 8.46 159.088 8.3C158.795 8.12667 158.448 8.04 158.048 8.04C157.702 8.02667 157.382 8.08 157.088 8.2C156.808 8.32 156.582 8.5 156.408 8.74C156.248 8.96667 156.168 9.25333 156.168 9.6C156.168 9.93333 156.248 10.2133 156.408 10.44C156.582 10.6667 156.815 10.8667 157.108 11.04C157.402 11.2 157.748 11.3533 158.148 11.5C158.548 11.6333 158.982 11.7733 159.448 11.92C160.142 12.16 160.782 12.4467 161.368 12.78C161.955 13.1 162.422 13.52 162.768 14.04C163.115 14.56 163.288 15.2467 163.288 16.1C163.288 16.8333 163.095 17.5133 162.708 18.14C162.322 18.7667 161.762 19.2733 161.028 19.66C160.308 20.0467 159.408 20.24 158.328 20.24ZM165.54 20V6H168.24V11.54L173.3 6H176.62L171.48 11.54L176.78 20H173.48L169.54 13.64L168.24 15.04V20H165.54ZM177.647 20L182.767 6H185.827L190.927 20H188.067L184.267 9.08L180.467 20H177.647ZM179.907 16.82L180.627 14.72H187.747L188.447 16.82H179.907Z" fill="#1E1E1E"/>
<path d="M1.36 46V32H6.62C7.74 32 8.67333 32.1933 9.42 32.58C10.1667 32.9533 10.72 33.4667 11.08 34.12C11.44 34.7733 11.62 35.52 11.62 36.36C11.62 37.12 11.4467 37.8333 11.1 38.5C10.7533 39.1533 10.2067 39.68 9.46 40.08C8.72667 40.48 7.78 40.68 6.62 40.68H4.06V46H1.36ZM4.06 38.5H6.44C7.30667 38.5 7.92667 38.3067 8.3 37.92C8.68667 37.5333 8.88 37.0133 8.88 36.36C8.88 35.68 8.68667 35.1533 8.3 34.78C7.92667 34.3933 7.30667 34.2 6.44 34.2H4.06V38.5ZM13.6061 46V32H16.3061V43.9H22.4461V46H13.6061ZM30.0089 46.24C28.6356 46.24 27.4222 45.9333 26.3689 45.32C25.3289 44.7067 24.5089 43.86 23.9089 42.78C23.3222 41.6867 23.0289 40.4267 23.0289 39C23.0289 37.5733 23.3222 36.32 23.9089 35.24C24.5089 34.1467 25.3289 33.2933 26.3689 32.68C27.4222 32.0667 28.6356 31.76 30.0089 31.76C31.3956 31.76 32.6156 32.0667 33.6689 32.68C34.7222 33.2933 35.5422 34.1467 36.1289 35.24C36.7156 36.32 37.0089 37.5733 37.0089 39C37.0089 40.4267 36.7156 41.6867 36.1289 42.78C35.5422 43.86 34.7222 44.7067 33.6689 45.32C32.6156 45.9333 31.3956 46.24 30.0089 46.24ZM30.0089 43.82C30.8756 43.82 31.6222 43.6267 32.2489 43.24C32.8889 42.84 33.3822 42.28 33.7289 41.56C34.0756 40.84 34.2489 39.9867 34.2489 39C34.2489 38 34.0756 37.1467 33.7289 36.44C33.3822 35.72 32.8889 35.1667 32.2489 34.78C31.6222 34.3933 30.8756 34.2 30.0089 34.2C29.1556 34.2 28.4089 34.3933 27.7689 34.78C27.1422 35.1667 26.6556 35.72 26.3089 36.44C25.9622 37.1467 25.7889 38 25.7889 39C25.7889 39.9867 25.9622 40.84 26.3089 41.56C26.6556 42.28 27.1422 42.84 27.7689 43.24C28.4089 43.6267 29.1556 43.82 30.0089 43.82ZM45.5902 46.24C44.1902 46.24 42.9835 45.94 41.9702 45.34C40.9568 44.7267 40.1768 43.88 39.6302 42.8C39.0835 41.7067 38.8102 40.4467 38.8102 39.02C38.8102 37.5933 39.0835 36.3333 39.6302 35.24C40.1768 34.1467 40.9568 33.2933 41.9702 32.68C42.9835 32.0667 44.1902 31.76 45.5902 31.76C47.2968 31.76 48.6902 32.18 49.7702 33.02C50.8502 33.86 51.5235 35.0467 51.7902 36.58H48.8302C48.6568 35.8333 48.2968 35.2533 47.7502 34.84C47.2035 34.4133 46.4768 34.2 45.5702 34.2C44.7302 34.2 44.0102 34.4 43.4102 34.8C42.8102 35.1867 42.3502 35.74 42.0302 36.46C41.7235 37.1667 41.5702 38.02 41.5702 39.02C41.5702 40.0067 41.7235 40.86 42.0302 41.58C42.3502 42.3 42.8102 42.8533 43.4102 43.24C44.0102 43.6267 44.7302 43.82 45.5702 43.82C46.4768 43.82 47.2035 43.6267 47.7502 43.24C48.2968 42.84 48.6568 42.2867 48.8302 41.58H51.7902C51.5235 43.0333 50.8502 44.1733 49.7702 45C48.6902 45.8267 47.2968 46.24 45.5902 46.24ZM45.3102 31.1L42.3502 29.5V27.58L45.3102 29.3L48.2502 27.58V29.5L45.3102 31.1ZM52.9986 46L58.1186 32H61.1786L66.2786 46H63.4186L59.6186 35.08L55.8186 46H52.9986ZM55.2586 42.82L55.9786 40.72H63.0986L63.7986 42.82H55.2586Z" fill="#5E5E5E"/>
</svg>
