<svg width="49" height="46" viewBox="0 0 49 46" fill="none" xmlns="http://www.w3.org/2000/svg">
<path d="M12.5714 11.5C12.5714 14.55 13.7755 17.4751 15.9188 19.6317C18.0621 21.7884 20.969 23 24 23C27.031 23 29.9379 21.7884 32.0812 19.6317C34.2245 17.4751 35.4286 14.55 35.4286 11.5C35.4286 8.45001 34.2245 5.52494 32.0812 3.36827C29.9379 1.2116 27.031 0 24 0C20.969 0 18.0621 1.2116 15.9188 3.36827C13.7755 5.52494 12.5714 8.45001 12.5714 11.5ZM21.0089 29.4867L22.6696 32.2719L19.6964 43.4035L16.4821 30.2055C16.3036 29.4777 15.6071 29.0016 14.8839 29.1902C8.63393 30.7625 4 36.4586 4 43.2418C4 44.7691 5.23214 46 6.74107 46H18.5C18.5 46 18.5 46 18.5089 46H19H29H29.4911C29.4911 46 29.4911 46 29.5 46H41.2589C42.7768 46 44 44.7602 44 43.2418C44 36.4586 39.3661 30.7625 33.1161 29.1902C32.3929 29.0105 31.6964 29.4867 31.5179 30.2055L28.3036 43.4035L25.3304 32.2719L26.9911 29.4867C27.5625 28.5254 26.875 27.3125 25.7679 27.3125H24H22.2411C21.1339 27.3125 20.4464 28.5344 21.0179 29.4867H21.0089Z" fill="black"/>
</svg>
