<svg width="214" height="37" viewBox="0 0 214 37" fill="none" xmlns="http://www.w3.org/2000/svg">
<path fill-rule="evenodd" clip-rule="evenodd" d="M2 5.50019C0.895431 5.50019 0 6.39562 0 7.50019V15.8957C0 17.0003 0.895429 17.8957 2 17.8957H10.3955C11.5001 17.8957 12.3955 17.0003 12.3955 15.8957V7.50019C12.3955 6.39562 11.5001 5.50019 10.3955 5.50019H2ZM10.7394 7.19028H1.69588V16.2052H10.7394V7.19028Z" fill="#241147"/>
<path fill-rule="evenodd" clip-rule="evenodd" d="M3 19.1045C1.34315 19.1045 0 20.4476 0 22.1045V28.5C0 30.1569 1.34314 31.5 3 31.5H9.3955C11.0524 31.5 12.3955 30.1569 12.3955 28.5V22.1045C12.3955 20.4476 11.0524 19.1045 9.3955 19.1045H3ZM10.7394 20.7127H1.69588V29.7276H10.7394V20.7127Z" fill="#241147"/>
<path fill-rule="evenodd" clip-rule="evenodd" d="M16.5222 19.1044C14.8654 19.1044 13.5222 20.4476 13.5222 22.1044V28.4999C13.5222 30.1568 14.8654 31.4999 16.5222 31.4999H22.9177C24.5746 31.4999 25.9177 30.1568 25.9177 28.4999V22.1044C25.9177 20.4476 24.5746 19.1044 22.9177 19.1044H16.5222ZM24.3043 20.7127H15.2608V29.7276H24.3043V20.7127Z" fill="#241147"/>
<rect x="13.5222" y="11.7387" width="8.82301" height="8.82301" rx="1" transform="rotate(-45 13.5222 11.7387)" fill="#241147"/>
<path d="M47.088 16V4.8H49.248V9.232L53.312 4.8H55.968L51.84 9.232L56.096 16H53.456L50.304 10.912L49.248 12.032V16H47.088ZM56.7895 16L60.8855 4.8H63.3335L67.4135 16H65.1255L62.1015 7.264L59.0615 16H56.7895ZM58.5975 13.456L59.1735 11.776H64.8695L65.4295 13.456H58.5975ZM68.8536 16V4.8H71.0136V14.32H75.9416V16H68.8536ZM77.7755 16V4.8H79.9355V9.232L83.9995 4.8H86.6555L82.5275 9.232L86.7835 16H84.1435L80.9915 10.912L79.9355 12.032V16H77.7755ZM92.565 16.192C91.7437 16.192 90.997 16.0267 90.325 15.696C89.653 15.3653 89.1197 14.8693 88.725 14.208C88.3303 13.5467 88.133 12.704 88.133 11.68V4.8H90.293V11.696C90.293 12.2507 90.3837 12.72 90.565 13.104C90.7463 13.4773 91.0077 13.7547 91.349 13.936C91.701 14.1173 92.117 14.208 92.597 14.208C93.0877 14.208 93.5037 14.1173 93.845 13.936C94.197 13.7547 94.4637 13.4773 94.645 13.104C94.837 12.72 94.933 12.2507 94.933 11.696V4.8H97.093V11.68C97.093 12.704 96.885 13.5467 96.469 14.208C96.0637 14.8693 95.5197 15.3653 94.837 15.696C94.1543 16.0267 93.397 16.192 92.565 16.192ZM99.1661 16V4.8H101.326V14.32H106.254V16H99.1661ZM107.352 16L111.448 4.8H113.896L117.976 16H115.688L112.664 7.264L109.624 16H107.352ZM109.16 13.456L109.736 11.776H115.432L115.992 13.456H109.16ZM120.837 16V6.544H117.573V4.8H126.261V6.544H122.997V16H120.837ZM132.601 16.192C131.502 16.192 130.537 15.9467 129.705 15.456C128.873 14.9653 128.217 14.288 127.737 13.424C127.267 12.5493 127.033 11.5413 127.033 10.4C127.033 9.25867 127.267 8.256 127.737 7.392C128.217 6.51733 128.873 5.83467 129.705 5.344C130.537 4.85333 131.502 4.608 132.601 4.608C133.699 4.608 134.665 4.85333 135.497 5.344C136.339 5.83467 136.99 6.51733 137.449 7.392C137.918 8.256 138.153 9.25867 138.153 10.4C138.153 11.5413 137.918 12.5493 137.449 13.424C136.99 14.288 136.339 14.9653 135.497 15.456C134.665 15.9467 133.699 16.192 132.601 16.192ZM132.601 14.256C133.283 14.256 133.875 14.1013 134.377 13.792C134.878 13.472 135.262 13.024 135.529 12.448C135.806 11.872 135.945 11.1893 135.945 10.4C135.945 9.6 135.806 8.91733 135.529 8.352C135.262 7.776 134.878 7.33333 134.377 7.024C133.875 6.71467 133.283 6.56 132.601 6.56C131.918 6.56 131.326 6.71467 130.825 7.024C130.323 7.33333 129.934 7.776 129.657 8.352C129.379 8.91733 129.241 9.6 129.241 10.4C129.241 11.1893 129.379 11.872 129.657 12.448C129.934 13.024 130.323 13.472 130.825 13.792C131.326 14.1013 131.918 14.256 132.601 14.256ZM139.963 16V4.8H144.155C145.051 4.8 145.792 4.95467 146.379 5.264C146.976 5.57333 147.419 5.98933 147.707 6.512C147.995 7.024 148.139 7.59467 148.139 8.224C148.139 8.82133 147.995 9.38133 147.707 9.904C147.43 10.416 146.998 10.832 146.411 11.152C145.824 11.4613 145.062 11.616 144.123 11.616H142.123V16H139.963ZM145.771 16L143.467 11.072H145.803L148.235 16H145.771ZM142.123 10.048H144.027C144.678 10.048 145.158 9.888 145.467 9.568C145.776 9.248 145.931 8.82667 145.931 8.304C145.931 7.78133 145.776 7.37067 145.467 7.072C145.168 6.76267 144.683 6.608 144.011 6.608H142.123V10.048ZM153.807 16V4.8H161.183V6.544H155.967V9.472H160.703V11.152H155.967V14.256H161.183V16H153.807ZM163.135 16V4.8H165.727L169.167 11.776L172.559 4.8H175.135V16H172.975V8.464L169.999 14.432H168.287L165.295 8.48V16H163.135ZM177.307 16V4.8H179.467V16H177.307ZM185.538 16.192C184.727 16.192 184.002 16.0533 183.362 15.776C182.722 15.4987 182.221 15.0933 181.858 14.56C181.495 14.0267 181.303 13.3813 181.282 12.624H183.57C183.581 12.9547 183.666 13.2533 183.826 13.52C183.986 13.7867 184.21 14 184.498 14.16C184.786 14.3093 185.127 14.384 185.522 14.384C185.863 14.384 186.157 14.3307 186.402 14.224C186.658 14.1067 186.855 13.9467 186.994 13.744C187.133 13.5413 187.202 13.3013 187.202 13.024C187.202 12.704 187.122 12.4373 186.962 12.224C186.813 12.0107 186.599 11.8293 186.322 11.68C186.045 11.52 185.725 11.3813 185.362 11.264C185.01 11.136 184.637 11.008 184.242 10.88C183.367 10.592 182.695 10.208 182.226 9.728C181.767 9.248 181.538 8.61333 181.538 7.824C181.538 7.152 181.698 6.576 182.018 6.096C182.349 5.616 182.797 5.248 183.362 4.992C183.938 4.736 184.599 4.608 185.346 4.608C186.103 4.608 186.765 4.74133 187.33 5.008C187.906 5.264 188.359 5.63733 188.69 6.128C189.021 6.61867 189.197 7.19467 189.218 7.856H186.898C186.898 7.61067 186.829 7.38133 186.69 7.168C186.562 6.944 186.381 6.768 186.146 6.64C185.911 6.50133 185.634 6.432 185.314 6.432C185.026 6.42133 184.77 6.464 184.546 6.56C184.322 6.656 184.141 6.8 184.002 6.992C183.874 7.17333 183.81 7.40267 183.81 7.68C183.81 7.94667 183.874 8.17067 184.002 8.352C184.13 8.53333 184.311 8.69333 184.546 8.832C184.791 8.96 185.069 9.08267 185.378 9.2C185.698 9.30667 186.045 9.41867 186.418 9.536C186.983 9.728 187.495 9.95733 187.954 10.224C188.423 10.48 188.797 10.816 189.074 11.232C189.351 11.648 189.49 12.1973 189.49 12.88C189.49 13.4667 189.335 14.0107 189.026 14.512C188.727 15.0133 188.285 15.4187 187.698 15.728C187.111 16.0373 186.391 16.192 185.538 16.192ZM191.307 16V4.8H193.467V16H191.307ZM198.674 16.192C197.949 16.192 197.309 16.0533 196.754 15.776C196.21 15.4987 195.783 15.0933 195.474 14.56C195.175 14.016 195.026 13.36 195.026 12.592H197.186C197.186 12.9333 197.239 13.232 197.346 13.488C197.453 13.7333 197.607 13.9253 197.81 14.064C198.023 14.192 198.295 14.256 198.626 14.256C198.935 14.256 199.186 14.1973 199.378 14.08C199.581 13.952 199.73 13.776 199.826 13.552C199.922 13.3173 199.97 13.04 199.97 12.72V4.8H202.13V12.72C202.13 13.84 201.815 14.6987 201.186 15.296C200.567 15.8933 199.73 16.192 198.674 16.192ZM204.307 16V4.8H211.683V6.544H206.467V9.472H211.203V11.152H206.467V14.256H211.683V16H204.307Z" fill="#1E1E1E"/>
<path d="M49.744 33.144C49.136 33.144 48.592 33.04 48.112 32.832C47.64 32.624 47.264 32.32 46.984 31.92C46.712 31.52 46.572 31.036 46.564 30.468H48.28C48.288 30.716 48.352 30.94 48.472 31.14C48.592 31.34 48.756 31.5 48.964 31.62C49.18 31.732 49.436 31.788 49.732 31.788C49.988 31.788 50.208 31.748 50.392 31.668C50.584 31.58 50.732 31.46 50.836 31.308C50.94 31.156 50.992 30.976 50.992 30.768C50.992 30.544 50.936 30.352 50.824 30.192C50.712 30.032 50.556 29.896 50.356 29.784C50.156 29.664 49.924 29.556 49.66 29.46C49.404 29.364 49.128 29.268 48.832 29.172C48.144 28.956 47.624 28.668 47.272 28.308C46.92 27.94 46.744 27.46 46.744 26.868C46.744 26.364 46.864 25.932 47.104 25.572C47.352 25.212 47.692 24.936 48.124 24.744C48.556 24.552 49.048 24.456 49.6 24.456C50.168 24.456 50.664 24.556 51.088 24.756C51.52 24.948 51.86 25.228 52.108 25.596C52.364 25.964 52.5 26.396 52.516 26.892H50.776C50.768 26.708 50.712 26.536 50.608 26.376C50.512 26.208 50.376 26.076 50.2 25.98C50.024 25.876 49.816 25.824 49.576 25.824C49.368 25.816 49.176 25.848 49 25.92C48.832 25.992 48.7 26.1 48.604 26.244C48.508 26.38 48.46 26.552 48.46 26.76C48.46 26.96 48.508 27.128 48.604 27.264C48.7 27.4 48.836 27.52 49.012 27.624C49.188 27.72 49.396 27.812 49.636 27.9C49.876 27.98 50.136 28.064 50.416 28.152C50.832 28.296 51.216 28.468 51.568 28.668C51.92 28.86 52.2 29.112 52.408 29.424C52.616 29.736 52.72 30.148 52.72 30.66C52.72 31.1 52.604 31.508 52.372 31.884C52.148 32.26 51.816 32.564 51.376 32.796C50.936 33.028 50.392 33.144 49.744 33.144ZM56.0148 33V25.908H53.5548V24.6H60.0708V25.908H57.6228V33H56.0148ZM59.7994 33L62.8714 24.6H64.7074L67.7674 33H66.0514L63.7834 26.448L61.5034 33H59.7994ZM61.1554 31.092L61.5874 29.832H65.8594L66.2794 31.092H61.1554ZM68.895 33V24.6H70.515V27.924L73.551 24.6H75.555L72.459 27.924L75.639 33H73.659L71.307 29.184L70.515 30.024V33H68.895ZM76.7934 33V24.6H78.4134V31.74H82.0974V33H76.7934ZM83.5317 33V24.6H89.0517V25.908H85.1517V28.104H88.6917V29.364H85.1517V31.692H89.0517V33H83.5317ZM90.5629 33V24.6H92.1829L96.0469 30.396V24.6H97.6669V33H96.0469L92.1829 27.216V33H90.5629ZM99.3754 33V24.6H100.995V33H99.3754ZM106.424 33.144C105.592 33.144 104.876 32.964 104.276 32.604C103.676 32.236 103.216 31.728 102.896 31.08C102.576 30.424 102.416 29.668 102.416 28.812C102.416 27.956 102.576 27.2 102.896 26.544C103.216 25.888 103.676 25.376 104.276 25.008C104.876 24.64 105.592 24.456 106.424 24.456C107.44 24.456 108.268 24.708 108.908 25.212C109.556 25.716 109.96 26.428 110.12 27.348H108.356C108.252 26.9 108.036 26.552 107.708 26.304C107.38 26.048 106.948 25.92 106.412 25.92C105.924 25.92 105.504 26.04 105.152 26.28C104.8 26.512 104.528 26.844 104.336 27.276C104.152 27.7 104.06 28.212 104.06 28.812C104.06 29.404 104.152 29.916 104.336 30.348C104.528 30.78 104.8 31.112 105.152 31.344C105.504 31.576 105.924 31.692 106.412 31.692C106.948 31.692 107.376 31.576 107.696 31.344C108.024 31.104 108.244 30.772 108.356 30.348H110.12C109.96 31.22 109.556 31.904 108.908 32.4C108.268 32.896 107.44 33.144 106.424 33.144ZM106.268 24.06L104.492 23.1V21.948L106.268 22.98L108.032 21.948V23.1L106.268 24.06ZM111.528 33V24.6H113.148V27.924L116.184 24.6H118.188L115.092 27.924L118.272 33H116.292L113.94 29.184L113.148 30.024V33H111.528ZM119.426 33V24.6H121.046V33H119.426ZM128.046 33V24.6H129.666V33H128.046ZM122.754 33V24.6H124.374V33H122.754ZM124.158 29.364V28.056H128.322V29.364H124.158ZM134.215 33V24.6H137.347C138.027 24.6 138.591 24.716 139.039 24.948C139.487 25.18 139.819 25.496 140.035 25.896C140.259 26.296 140.371 26.748 140.371 27.252C140.371 27.716 140.263 28.148 140.047 28.548C139.839 28.948 139.511 29.272 139.063 29.52C138.623 29.76 138.051 29.88 137.347 29.88H135.835V33H134.215ZM135.835 28.572H137.239C137.775 28.572 138.155 28.452 138.379 28.212C138.611 27.972 138.727 27.652 138.727 27.252C138.727 26.836 138.611 26.512 138.379 26.28C138.155 26.04 137.775 25.92 137.239 25.92H135.835V28.572ZM141.633 33V24.6H143.253V31.74H146.937V33H141.633ZM148.372 33V24.6H149.992V33H148.372ZM151.7 33V24.6H153.32L157.184 30.396V24.6H158.804V33H157.184L153.32 27.216V33H151.7ZM164.304 33.144C163.496 33.144 162.784 32.96 162.168 32.592C161.56 32.224 161.084 31.716 160.74 31.068C160.396 30.412 160.224 29.656 160.224 28.8C160.224 27.944 160.396 27.192 160.74 26.544C161.084 25.888 161.56 25.376 162.168 25.008C162.784 24.64 163.496 24.456 164.304 24.456C165.112 24.456 165.82 24.64 166.428 25.008C167.044 25.376 167.524 25.888 167.868 26.544C168.212 27.192 168.384 27.944 168.384 28.8C168.384 29.656 168.212 30.412 167.868 31.068C167.524 31.716 167.044 32.224 166.428 32.592C165.82 32.96 165.112 33.144 164.304 33.144ZM164.304 31.692C164.8 31.692 165.228 31.576 165.588 31.344C165.956 31.104 166.236 30.768 166.428 30.336C166.628 29.904 166.728 29.392 166.728 28.8C166.728 28.2 166.628 27.688 166.428 27.264C166.236 26.832 165.956 26.5 165.588 26.268C165.228 26.036 164.8 25.92 164.304 25.92C163.816 25.92 163.388 26.036 163.02 26.268C162.652 26.5 162.368 26.832 162.168 27.264C161.968 27.688 161.868 28.2 161.868 28.8C161.868 29.392 161.968 29.904 162.168 30.336C162.368 30.768 162.652 31.104 163.02 31.344C163.388 31.576 163.816 31.692 164.304 31.692ZM171.924 33L168.864 24.6H170.592L172.92 31.344L175.26 24.6H176.964L173.916 33H171.924ZM176.389 33L179.461 24.6H181.297L184.357 33H182.641L180.373 26.448L178.093 33H176.389ZM177.745 31.092L178.177 29.832H182.449L182.869 31.092H177.745Z" fill="#241147"/>
</svg>
