<svg width="307" height="52" viewBox="0 0 307 52" fill="none" xmlns="http://www.w3.org/2000/svg">
<path fill-rule="evenodd" clip-rule="evenodd" d="M3 3.00018C1.34315 3.00018 0 4.34333 0 6.00019V21.9307C0 23.5875 1.34315 24.9307 3 24.9307H18.9305C20.5874 24.9307 21.9305 23.5875 21.9305 21.9307V6.00018C21.9305 4.34333 20.5874 3.00018 18.9305 3.00018H3ZM19 5.99053H3V21.94H19V5.99053Z" fill="#241147"/>
<path fill-rule="evenodd" clip-rule="evenodd" d="M3 27.0694C1.34315 27.0694 0 28.4125 0 30.0694V45.9999C0 47.6567 1.34315 48.9999 3 48.9999H18.9305C20.5874 48.9999 21.9305 47.6567 21.9305 45.9999V30.0694C21.9305 28.4125 20.5874 27.0694 18.9305 27.0694H3ZM19 29.9147H3V45.8642H19V29.9147Z" fill="#241147"/>
<path fill-rule="evenodd" clip-rule="evenodd" d="M26.9241 27.0694C25.2672 27.0694 23.9241 28.4125 23.9241 30.0694V45.9999C23.9241 47.6567 25.2672 48.9999 26.9241 48.9999H42.8546C44.5114 48.9999 45.8546 47.6567 45.8546 45.9999V30.0694C45.8546 28.4125 44.5114 27.0694 42.8546 27.0694H26.9241ZM43 29.9147H27V45.8642H43V29.9147Z" fill="#241147"/>
<rect x="23.9241" y="14.0378" width="15.6099" height="15.6099" rx="3" transform="rotate(-45 23.9241 14.0378)" fill="#241147"/>
<path d="M67.36 20V6H70.06V11.54L75.12 6H78.44L73.3 11.54L78.6 20H75.3L71.36 13.64L70.06 15.04V20H67.36ZM79.4673 20L84.5873 6H87.6473L92.7473 20H89.8873L86.0873 9.08L82.2873 20H79.4673ZM81.7273 16.82L82.4473 14.72H89.5673L90.2673 16.82H81.7273ZM94.5475 20V6H97.2475V17.9H103.388V20H94.5475ZM105.68 20V6H108.38V11.54L113.44 6H116.76L111.62 11.54L116.92 20H113.62L109.68 13.64L108.38 15.04V20H105.68ZM124.148 20.24C123.121 20.24 122.188 20.0333 121.348 19.62C120.508 19.2067 119.841 18.5867 119.348 17.76C118.854 16.9333 118.608 15.88 118.608 14.6V6H121.308V14.62C121.308 15.3133 121.421 15.9 121.648 16.38C121.874 16.8467 122.201 17.1933 122.628 17.42C123.068 17.6467 123.588 17.76 124.188 17.76C124.801 17.76 125.321 17.6467 125.748 17.42C126.188 17.1933 126.521 16.8467 126.748 16.38C126.988 15.9 127.108 15.3133 127.108 14.62V6H129.808V14.6C129.808 15.88 129.548 16.9333 129.028 17.76C128.521 18.5867 127.841 19.2067 126.988 19.62C126.134 20.0333 125.188 20.24 124.148 20.24ZM132.399 20V6H135.099V17.9H141.239V20H132.399ZM142.612 20L147.732 6H150.792L155.892 20H153.032L149.232 9.08L145.432 20H142.612ZM144.872 16.82L145.592 14.72H152.712L153.412 16.82H144.872ZM159.468 20V8.18H155.368V6H166.248V8.18H162.148V20H159.468ZM174.173 20.24C172.8 20.24 171.586 19.9333 170.533 19.32C169.493 18.7067 168.673 17.86 168.073 16.78C167.486 15.6867 167.193 14.4267 167.193 13C167.193 11.5733 167.486 10.32 168.073 9.24C168.673 8.14667 169.493 7.29333 170.533 6.68C171.586 6.06667 172.8 5.76 174.173 5.76C175.56 5.76 176.78 6.06667 177.833 6.68C178.886 7.29333 179.706 8.14667 180.293 9.24C180.88 10.32 181.173 11.5733 181.173 13C181.173 14.4267 180.88 15.6867 180.293 16.78C179.706 17.86 178.886 18.7067 177.833 19.32C176.78 19.9333 175.56 20.24 174.173 20.24ZM174.173 17.82C175.04 17.82 175.786 17.6267 176.413 17.24C177.053 16.84 177.546 16.28 177.893 15.56C178.24 14.84 178.413 13.9867 178.413 13C178.413 12 178.24 11.1467 177.893 10.44C177.546 9.72 177.053 9.16667 176.413 8.78C175.786 8.39333 175.04 8.2 174.173 8.2C173.32 8.2 172.573 8.39333 171.933 8.78C171.306 9.16667 170.82 9.72 170.473 10.44C170.126 11.1467 169.953 12 169.953 13C169.953 13.9867 170.126 14.84 170.473 15.56C170.82 16.28 171.306 16.84 171.933 17.24C172.573 17.6267 173.32 17.82 174.173 17.82ZM183.434 20V6H188.654C189.788 6 190.721 6.19333 191.454 6.58C192.188 6.96667 192.734 7.48667 193.094 8.14C193.454 8.78 193.634 9.49333 193.634 10.28C193.634 11.0267 193.461 11.7267 193.114 12.38C192.768 13.02 192.221 13.54 191.474 13.94C190.741 14.3267 189.794 14.52 188.634 14.52H186.134V20H183.434ZM190.694 20L187.814 13.84H190.734L193.774 20H190.694ZM186.134 12.56H188.494C189.308 12.56 189.908 12.36 190.294 11.96C190.681 11.56 190.874 11.0333 190.874 10.38C190.874 9.72667 190.681 9.21333 190.294 8.84C189.921 8.45333 189.321 8.26 188.494 8.26H186.134V12.56ZM200.719 20V6H209.919V8.18H203.419V11.84H209.319V13.94H203.419V17.82H209.919V20H200.719ZM212.34 20V6H215.56L219.88 14.72L224.16 6H227.38V20H224.68V10.58L220.94 18.02H218.8L215.04 10.58V20H212.34ZM230.094 20V6H232.794V20H230.094ZM240.305 20.24C239.292 20.24 238.385 20.0667 237.585 19.72C236.798 19.3733 236.172 18.8667 235.705 18.2C235.252 17.5333 235.018 16.7267 235.005 15.78H237.865C237.878 16.1933 237.985 16.5667 238.185 16.9C238.385 17.2333 238.658 17.5 239.005 17.7C239.365 17.8867 239.792 17.98 240.285 17.98C240.712 17.98 241.078 17.9133 241.385 17.78C241.705 17.6333 241.952 17.4333 242.125 17.18C242.298 16.9267 242.385 16.6267 242.385 16.28C242.385 15.8667 242.285 15.5267 242.085 15.26C241.898 14.9933 241.632 14.7667 241.285 14.58C240.938 14.3933 240.538 14.2267 240.085 14.08C239.645 13.92 239.178 13.76 238.685 13.6C237.592 13.24 236.752 12.76 236.165 12.16C235.592 11.56 235.305 10.7667 235.305 9.78C235.305 8.94 235.505 8.22 235.905 7.62C236.318 7.02 236.885 6.56 237.605 6.24C238.325 5.92 239.145 5.76 240.065 5.76C241.012 5.76 241.838 5.92667 242.545 6.26C243.265 6.58 243.832 7.04667 244.245 7.66C244.672 8.27333 244.892 8.99333 244.905 9.82H242.025C242.012 9.51333 241.918 9.22667 241.745 8.96C241.585 8.68 241.358 8.46 241.065 8.3C240.772 8.12667 240.425 8.04 240.025 8.04C239.678 8.02667 239.358 8.08 239.065 8.2C238.785 8.32 238.558 8.5 238.385 8.74C238.225 8.96667 238.145 9.25333 238.145 9.6C238.145 9.93333 238.225 10.2133 238.385 10.44C238.558 10.6667 238.792 10.8667 239.085 11.04C239.378 11.2 239.725 11.3533 240.125 11.5C240.525 11.6333 240.958 11.7733 241.425 11.92C242.118 12.16 242.758 12.4467 243.345 12.78C243.932 13.1 244.398 13.52 244.745 14.04C245.092 14.56 245.265 15.2467 245.265 16.1C245.265 16.8333 245.072 17.5133 244.685 18.14C244.298 18.7667 243.738 19.2733 243.005 19.66C242.285 20.0467 241.385 20.24 240.305 20.24ZM247.516 20V6H250.216V20H247.516ZM256.647 20.24C255.74 20.24 254.94 20.0667 254.247 19.72C253.567 19.3733 253.034 18.8667 252.647 18.2C252.274 17.52 252.087 16.7 252.087 15.74H254.787C254.787 16.1667 254.854 16.54 254.987 16.86C255.12 17.1667 255.314 17.4067 255.567 17.58C255.834 17.74 256.174 17.82 256.587 17.82C256.974 17.82 257.294 17.7467 257.547 17.6C257.8 17.44 257.98 17.22 258.087 16.94C258.207 16.6467 258.267 16.3 258.267 15.9V6H260.967V15.9C260.967 17.3 260.574 18.3733 259.787 19.12C259.014 19.8667 257.967 20.24 256.647 20.24ZM263.688 20V6H272.888V8.18H266.388V11.84H272.288V13.94H266.388V17.82H272.888V20H263.688Z" fill="#1E1E1E"/>
<path d="M72.18 46.24C71.1667 46.24 70.26 46.0667 69.46 45.72C68.6733 45.3733 68.0467 44.8667 67.58 44.2C67.1267 43.5333 66.8933 42.7267 66.88 41.78H69.74C69.7533 42.1933 69.86 42.5667 70.06 42.9C70.26 43.2333 70.5333 43.5 70.88 43.7C71.24 43.8867 71.6667 43.98 72.16 43.98C72.5867 43.98 72.9533 43.9133 73.26 43.78C73.58 43.6333 73.8267 43.4333 74 43.18C74.1733 42.9267 74.26 42.6267 74.26 42.28C74.26 41.8667 74.16 41.5267 73.96 41.26C73.7733 40.9933 73.5067 40.7667 73.16 40.58C72.8133 40.3933 72.4133 40.2267 71.96 40.08C71.52 39.92 71.0533 39.76 70.56 39.6C69.4667 39.24 68.6267 38.76 68.04 38.16C67.4667 37.56 67.18 36.7667 67.18 35.78C67.18 34.94 67.38 34.22 67.78 33.62C68.1933 33.02 68.76 32.56 69.48 32.24C70.2 31.92 71.02 31.76 71.94 31.76C72.8867 31.76 73.7133 31.9267 74.42 32.26C75.14 32.58 75.7067 33.0467 76.12 33.66C76.5467 34.2733 76.7667 34.9933 76.78 35.82H73.9C73.8867 35.5133 73.7933 35.2267 73.62 34.96C73.46 34.68 73.2333 34.46 72.94 34.3C72.6467 34.1267 72.3 34.04 71.9 34.04C71.5533 34.0267 71.2333 34.08 70.94 34.2C70.66 34.32 70.4333 34.5 70.26 34.74C70.1 34.9667 70.02 35.2533 70.02 35.6C70.02 35.9333 70.1 36.2133 70.26 36.44C70.4333 36.6667 70.6667 36.8667 70.96 37.04C71.2533 37.2 71.6 37.3533 72 37.5C72.4 37.6333 72.8333 37.7733 73.3 37.92C73.9933 38.16 74.6333 38.4467 75.22 38.78C75.8067 39.1 76.2733 39.52 76.62 40.04C76.9667 40.56 77.14 41.2467 77.14 42.1C77.14 42.8333 76.9467 43.5133 76.56 44.14C76.1733 44.7667 75.6133 45.2733 74.88 45.66C74.16 46.0467 73.26 46.24 72.18 46.24ZM82.5145 46V34.18H78.4145V32H89.2945V34.18H85.1945V46H82.5145ZM88.7642 46L93.8842 32H96.9442L102.044 46H99.1842L95.3842 35.08L91.5842 46H88.7642ZM91.0242 42.82L91.7442 40.72H98.8642L99.5642 42.82H91.0242ZM103.844 46V32H106.544V37.54L111.604 32H114.924L109.784 37.54L115.084 46H111.784L107.844 39.64L106.544 41.04V46H103.844ZM116.872 46V32H119.572V43.9H125.712V46H116.872ZM128.005 46V32H137.205V34.18H130.705V37.84H136.605V39.94H130.705V43.82H137.205V46H128.005ZM139.626 46V32H142.326L148.766 41.66V32H151.466V46H148.766L142.326 36.38V46H139.626ZM154.157 46V32H156.857V46H154.157ZM165.868 46.24C164.468 46.24 163.261 45.94 162.248 45.34C161.234 44.7267 160.454 43.88 159.908 42.8C159.361 41.7067 159.088 40.4467 159.088 39.02C159.088 37.5933 159.361 36.3333 159.908 35.24C160.454 34.1467 161.234 33.2933 162.248 32.68C163.261 32.0667 164.468 31.76 165.868 31.76C167.574 31.76 168.968 32.18 170.048 33.02C171.128 33.86 171.801 35.0467 172.068 36.58H169.108C168.934 35.8333 168.574 35.2533 168.028 34.84C167.481 34.4133 166.754 34.2 165.848 34.2C165.008 34.2 164.288 34.4 163.688 34.8C163.088 35.1867 162.628 35.74 162.308 36.46C162.001 37.1667 161.848 38.02 161.848 39.02C161.848 40.0067 162.001 40.86 162.308 41.58C162.628 42.3 163.088 42.8533 163.688 43.24C164.288 43.6267 165.008 43.82 165.848 43.82C166.754 43.82 167.481 43.6267 168.028 43.24C168.574 42.84 168.934 42.2867 169.108 41.58H172.068C171.801 43.0333 171.128 44.1733 170.048 45C168.968 45.8267 167.574 46.24 165.868 46.24ZM165.588 31.1L162.628 29.5V27.58L165.588 29.3L168.528 27.58V29.5L165.588 31.1ZM174.333 46V32H177.033V37.54L182.093 32H185.413L180.273 37.54L185.573 46H182.273L178.333 39.64L177.033 41.04V46H174.333ZM187.36 46V32H190.06V46H187.36ZM201.571 46V32H204.271V46H201.571ZM192.751 46V32H195.451V46H192.751ZM195.071 39.94V37.76H202.031V39.94H195.071ZM211.676 46V32H216.936C218.056 32 218.99 32.1933 219.736 32.58C220.483 32.9533 221.036 33.4667 221.396 34.12C221.756 34.7733 221.936 35.52 221.936 36.36C221.936 37.12 221.763 37.8333 221.416 38.5C221.07 39.1533 220.523 39.68 219.776 40.08C219.043 40.48 218.096 40.68 216.936 40.68H214.376V46H211.676ZM214.376 38.5H216.756C217.623 38.5 218.243 38.3067 218.616 37.92C219.003 37.5333 219.196 37.0133 219.196 36.36C219.196 35.68 219.003 35.1533 218.616 34.78C218.243 34.3933 217.623 34.2 216.756 34.2H214.376V38.5ZM223.923 46V32H226.623V43.9H232.763V46H223.923ZM235.055 46V32H237.755V46H235.055ZM240.446 46V32H243.146L249.586 41.66V32H252.286V46H249.586L243.146 36.38V46H240.446ZM261.497 46.24C260.124 46.24 258.911 45.9333 257.857 45.32C256.817 44.7067 255.997 43.86 255.397 42.78C254.811 41.6867 254.517 40.4267 254.517 39C254.517 37.5733 254.811 36.32 255.397 35.24C255.997 34.1467 256.817 33.2933 257.857 32.68C258.911 32.0667 260.124 31.76 261.497 31.76C262.884 31.76 264.104 32.0667 265.157 32.68C266.211 33.2933 267.031 34.1467 267.617 35.24C268.204 36.32 268.497 37.5733 268.497 39C268.497 40.4267 268.204 41.6867 267.617 42.78C267.031 43.86 266.211 44.7067 265.157 45.32C264.104 45.9333 262.884 46.24 261.497 46.24ZM261.497 43.82C262.364 43.82 263.111 43.6267 263.737 43.24C264.377 42.84 264.871 42.28 265.217 41.56C265.564 40.84 265.737 39.9867 265.737 39C265.737 38 265.564 37.1467 265.217 36.44C264.871 35.72 264.377 35.1667 263.737 34.78C263.111 34.3933 262.364 34.2 261.497 34.2C260.644 34.2 259.897 34.3933 259.257 34.78C258.631 35.1667 258.144 35.72 257.797 36.44C257.451 37.1467 257.277 38 257.277 39C257.277 39.9867 257.451 40.84 257.797 41.56C258.144 42.28 258.631 42.84 259.257 43.24C259.897 43.6267 260.644 43.82 261.497 43.82ZM274.31 46L269.23 32H272.11L275.97 43.24L279.87 32H282.73L277.63 46H274.31ZM281.733 46L286.853 32H289.913L295.013 46H292.153L288.353 35.08L284.553 46H281.733ZM283.993 42.82L284.713 40.72H291.833L292.533 42.82H283.993Z" fill="#241147"/>
</svg>
