<svg width="16" height="16" viewBox="0 0 16 16" fill="none" xmlns="http://www.w3.org/2000/svg">
<path fill-rule="evenodd" clip-rule="evenodd" d="M1 6.10352e-05C0.447715 6.10352e-05 0 0.447776 0 1.00006V6.62807C0 7.18035 0.447715 7.62807 1 7.62807H6.628C7.18029 7.62807 7.628 7.18035 7.628 6.62807V1.00006C7.628 0.447776 7.18029 6.10352e-05 6.628 6.10352e-05H1ZM6.93455 0.693497H0.693455V6.93459H6.93455V0.693497Z" fill="black"/>
<path fill-rule="evenodd" clip-rule="evenodd" d="M1 8.3215C0.447715 8.3215 0 8.76922 0 9.3215V14.9495C0 15.5018 0.447715 15.9495 1 15.9495H6.628C7.18029 15.9495 7.628 15.5018 7.628 14.9495V9.3215C7.628 8.76922 7.18029 8.3215 6.628 8.3215H1ZM6.93455 9.01496H0.693455V15.2561H6.93455V9.01496Z" fill="black"/>
<path fill-rule="evenodd" clip-rule="evenodd" d="M9.32129 8.3215C8.769 8.3215 8.32129 8.76922 8.32129 9.3215V14.9495C8.32129 15.5018 8.769 15.9495 9.32129 15.9495H14.9493C15.5016 15.9495 15.9493 15.5018 15.9493 14.9495V9.3215C15.9493 8.76922 15.5016 8.3215 14.9493 8.3215H9.32129ZM15.256 9.01496H9.01491V15.2561H15.256V9.01496Z" fill="black"/>
<path fill-rule="evenodd" clip-rule="evenodd" d="M9.0284 3.13216C8.63787 3.52269 8.63787 4.15585 9.0284 4.54638L11.4535 6.97144C11.844 7.36196 12.4771 7.36196 12.8677 6.97144L15.2927 4.54638C15.6832 4.15585 15.6832 3.52269 15.2927 3.13217L12.8677 0.707108C12.4771 0.316584 11.844 0.316583 11.4535 0.707108L9.0284 3.13216Z" fill="black"/>
</svg>
