<svg width="230" height="52" viewBox="0 0 230 52" fill="none" xmlns="http://www.w3.org/2000/svg">
<path d="M1.36 20V6H4.06V11.54L9.12 6H12.44L7.3 11.54L12.6 20H9.3L5.36 13.64L4.06 15.04V20H1.36ZM13.4673 20L18.5873 6H21.6473L26.7473 20H23.8873L20.0873 9.08L16.2873 20H13.4673ZM15.7273 16.82L16.4473 14.72H23.5673L24.2673 16.82H15.7273ZM28.5475 20V6H31.2475V17.9H37.3875V20H28.5475ZM39.6803 20V6H42.3803V11.54L47.4403 6H50.7603L45.6203 11.54L50.9203 20H47.6203L43.6803 13.64L42.3803 15.04V20H39.6803ZM58.1477 20.24C57.121 20.24 56.1877 20.0333 55.3477 19.62C54.5077 19.2067 53.841 18.5867 53.3477 17.76C52.8543 16.9333 52.6077 15.88 52.6077 14.6V6H55.3077V14.62C55.3077 15.3133 55.421 15.9 55.6477 16.38C55.8743 16.8467 56.201 17.1933 56.6277 17.42C57.0677 17.6467 57.5877 17.76 58.1877 17.76C58.801 17.76 59.321 17.6467 59.7477 17.42C60.1877 17.1933 60.521 16.8467 60.7477 16.38C60.9877 15.9 61.1077 15.3133 61.1077 14.62V6H63.8077V14.6C63.8077 15.88 63.5477 16.9333 63.0277 17.76C62.521 18.5867 61.841 19.2067 60.9877 19.62C60.1343 20.0333 59.1877 20.24 58.1477 20.24ZM66.3991 20V6H69.0991V17.9H75.2391V20H66.3991ZM76.6119 20L81.7319 6H84.7919L89.8919 20H87.0319L83.2319 9.08L79.4319 20H76.6119ZM78.8719 16.82L79.5919 14.72H86.7119L87.4119 16.82H78.8719ZM93.4677 20V8.18H89.3677V6H100.248V8.18H96.1477V20H93.4677ZM108.173 20.24C106.8 20.24 105.586 19.9333 104.533 19.32C103.493 18.7067 102.673 17.86 102.073 16.78C101.486 15.6867 101.193 14.4267 101.193 13C101.193 11.5733 101.486 10.32 102.073 9.24C102.673 8.14667 103.493 7.29333 104.533 6.68C105.586 6.06667 106.8 5.76 108.173 5.76C109.56 5.76 110.78 6.06667 111.833 6.68C112.886 7.29333 113.706 8.14667 114.293 9.24C114.88 10.32 115.173 11.5733 115.173 13C115.173 14.4267 114.88 15.6867 114.293 16.78C113.706 17.86 112.886 18.7067 111.833 19.32C110.78 19.9333 109.56 20.24 108.173 20.24ZM108.173 17.82C109.04 17.82 109.786 17.6267 110.413 17.24C111.053 16.84 111.546 16.28 111.893 15.56C112.24 14.84 112.413 13.9867 112.413 13C112.413 12 112.24 11.1467 111.893 10.44C111.546 9.72 111.053 9.16667 110.413 8.78C109.786 8.39333 109.04 8.2 108.173 8.2C107.32 8.2 106.573 8.39333 105.933 8.78C105.306 9.16667 104.82 9.72 104.473 10.44C104.126 11.1467 103.953 12 103.953 13C103.953 13.9867 104.126 14.84 104.473 15.56C104.82 16.28 105.306 16.84 105.933 17.24C106.573 17.6267 107.32 17.82 108.173 17.82ZM117.434 20V6H122.654C123.788 6 124.721 6.19333 125.454 6.58C126.188 6.96667 126.734 7.48667 127.094 8.14C127.454 8.78 127.634 9.49333 127.634 10.28C127.634 11.0267 127.461 11.7267 127.114 12.38C126.768 13.02 126.221 13.54 125.474 13.94C124.741 14.3267 123.794 14.52 122.634 14.52H120.134V20H117.434ZM124.694 20L121.814 13.84H124.734L127.774 20H124.694ZM120.134 12.56H122.494C123.308 12.56 123.908 12.36 124.294 11.96C124.681 11.56 124.874 11.0333 124.874 10.38C124.874 9.72667 124.681 9.21333 124.294 8.84C123.921 8.45333 123.321 8.26 122.494 8.26H120.134V12.56ZM134.719 20V6H143.919V8.18H137.419V11.84H143.319V13.94H137.419V17.82H143.919V20H134.719ZM146.34 20V6H149.56L153.88 14.72L158.16 6H161.38V20H158.68V10.58L154.94 18.02H152.8L149.04 10.58V20H146.34ZM164.094 20V6H166.794V20H164.094ZM174.305 20.24C173.292 20.24 172.385 20.0667 171.585 19.72C170.798 19.3733 170.172 18.8667 169.705 18.2C169.252 17.5333 169.018 16.7267 169.005 15.78H171.865C171.878 16.1933 171.985 16.5667 172.185 16.9C172.385 17.2333 172.658 17.5 173.005 17.7C173.365 17.8867 173.792 17.98 174.285 17.98C174.712 17.98 175.078 17.9133 175.385 17.78C175.705 17.6333 175.952 17.4333 176.125 17.18C176.298 16.9267 176.385 16.6267 176.385 16.28C176.385 15.8667 176.285 15.5267 176.085 15.26C175.898 14.9933 175.632 14.7667 175.285 14.58C174.938 14.3933 174.538 14.2267 174.085 14.08C173.645 13.92 173.178 13.76 172.685 13.6C171.592 13.24 170.752 12.76 170.165 12.16C169.592 11.56 169.305 10.7667 169.305 9.78C169.305 8.94 169.505 8.22 169.905 7.62C170.318 7.02 170.885 6.56 171.605 6.24C172.325 5.92 173.145 5.76 174.065 5.76C175.012 5.76 175.838 5.92667 176.545 6.26C177.265 6.58 177.832 7.04667 178.245 7.66C178.672 8.27333 178.892 8.99333 178.905 9.82H176.025C176.012 9.51333 175.918 9.22667 175.745 8.96C175.585 8.68 175.358 8.46 175.065 8.3C174.772 8.12667 174.425 8.04 174.025 8.04C173.678 8.02667 173.358 8.08 173.065 8.2C172.785 8.32 172.558 8.5 172.385 8.74C172.225 8.96667 172.145 9.25333 172.145 9.6C172.145 9.93333 172.225 10.2133 172.385 10.44C172.558 10.6667 172.792 10.8667 173.085 11.04C173.378 11.2 173.725 11.3533 174.125 11.5C174.525 11.6333 174.958 11.7733 175.425 11.92C176.118 12.16 176.758 12.4467 177.345 12.78C177.932 13.1 178.398 13.52 178.745 14.04C179.092 14.56 179.265 15.2467 179.265 16.1C179.265 16.8333 179.072 17.5133 178.685 18.14C178.298 18.7667 177.738 19.2733 177.005 19.66C176.285 20.0467 175.385 20.24 174.305 20.24ZM181.516 20V6H184.216V20H181.516ZM190.647 20.24C189.74 20.24 188.94 20.0667 188.247 19.72C187.567 19.3733 187.034 18.8667 186.647 18.2C186.274 17.52 186.087 16.7 186.087 15.74H188.787C188.787 16.1667 188.854 16.54 188.987 16.86C189.12 17.1667 189.314 17.4067 189.567 17.58C189.834 17.74 190.174 17.82 190.587 17.82C190.974 17.82 191.294 17.7467 191.547 17.6C191.8 17.44 191.98 17.22 192.087 16.94C192.207 16.6467 192.267 16.3 192.267 15.9V6H194.967V15.9C194.967 17.3 194.574 18.3733 193.787 19.12C193.014 19.8667 191.967 20.24 190.647 20.24ZM197.688 20V6H206.888V8.18H200.388V11.84H206.288V13.94H200.388V17.82H206.888V20H197.688Z" fill="#1E1E1E"/>
<path d="M6.18 46.24C5.16667 46.24 4.26 46.0667 3.46 45.72C2.67333 45.3733 2.04667 44.8667 1.58 44.2C1.12667 43.5333 0.893333 42.7267 0.88 41.78H3.74C3.75333 42.1933 3.86 42.5667 4.06 42.9C4.26 43.2333 4.53333 43.5 4.88 43.7C5.24 43.8867 5.66667 43.98 6.16 43.98C6.58667 43.98 6.95333 43.9133 7.26 43.78C7.58 43.6333 7.82667 43.4333 8 43.18C8.17333 42.9267 8.26 42.6267 8.26 42.28C8.26 41.8667 8.16 41.5267 7.96 41.26C7.77333 40.9933 7.50667 40.7667 7.16 40.58C6.81333 40.3933 6.41333 40.2267 5.96 40.08C5.52 39.92 5.05333 39.76 4.56 39.6C3.46667 39.24 2.62667 38.76 2.04 38.16C1.46667 37.56 1.18 36.7667 1.18 35.78C1.18 34.94 1.38 34.22 1.78 33.62C2.19333 33.02 2.76 32.56 3.48 32.24C4.2 31.92 5.02 31.76 5.94 31.76C6.88667 31.76 7.71333 31.9267 8.42 32.26C9.14 32.58 9.70667 33.0467 10.12 33.66C10.5467 34.2733 10.7667 34.9933 10.78 35.82H7.9C7.88667 35.5133 7.79333 35.2267 7.62 34.96C7.46 34.68 7.23333 34.46 6.94 34.3C6.64667 34.1267 6.3 34.04 5.9 34.04C5.55333 34.0267 5.23333 34.08 4.94 34.2C4.66 34.32 4.43333 34.5 4.26 34.74C4.1 34.9667 4.02 35.2533 4.02 35.6C4.02 35.9333 4.1 36.2133 4.26 36.44C4.43333 36.6667 4.66667 36.8667 4.96 37.04C5.25333 37.2 5.6 37.3533 6 37.5C6.4 37.6333 6.83333 37.7733 7.3 37.92C7.99333 38.16 8.63333 38.4467 9.22 38.78C9.80667 39.1 10.2733 39.52 10.62 40.04C10.9667 40.56 11.14 41.2467 11.14 42.1C11.14 42.8333 10.9467 43.5133 10.56 44.14C10.1733 44.7667 9.61333 45.2733 8.88 45.66C8.16 46.0467 7.26 46.24 6.18 46.24ZM16.5145 46V34.18H12.4145V32H23.2945V34.18H19.1945V46H16.5145ZM22.7642 46L27.8842 32H30.9442L36.0442 46H33.1842L29.3842 35.08L25.5842 46H22.7642ZM25.0242 42.82L25.7442 40.72H32.8642L33.5642 42.82H25.0242ZM37.8444 46V32H40.5444V37.54L45.6044 32H48.9244L43.7844 37.54L49.0844 46H45.7844L41.8444 39.64L40.5444 41.04V46H37.8444ZM50.8717 46V32H53.5717V43.9H59.7117V46H50.8717ZM62.0045 46V32H71.2045V34.18H64.7045V37.84H70.6045V39.94H64.7045V43.82H71.2045V46H62.0045ZM73.6256 46V32H76.3256L82.7656 41.66V32H85.4656V46H82.7656L76.3256 36.38V46H73.6256ZM88.1569 46V32H90.8569V46H88.1569ZM99.8675 46.24C98.4675 46.24 97.2608 45.94 96.2475 45.34C95.2342 44.7267 94.4542 43.88 93.9075 42.8C93.3608 41.7067 93.0875 40.4467 93.0875 39.02C93.0875 37.5933 93.3608 36.3333 93.9075 35.24C94.4542 34.1467 95.2342 33.2933 96.2475 32.68C97.2608 32.0667 98.4675 31.76 99.8675 31.76C101.574 31.76 102.968 32.18 104.048 33.02C105.128 33.86 105.801 35.0467 106.068 36.58H103.108C102.934 35.8333 102.574 35.2533 102.028 34.84C101.481 34.4133 100.754 34.2 99.8475 34.2C99.0075 34.2 98.2875 34.4 97.6875 34.8C97.0875 35.1867 96.6275 35.74 96.3075 36.46C96.0008 37.1667 95.8475 38.02 95.8475 39.02C95.8475 40.0067 96.0008 40.86 96.3075 41.58C96.6275 42.3 97.0875 42.8533 97.6875 43.24C98.2875 43.6267 99.0075 43.82 99.8475 43.82C100.754 43.82 101.481 43.6267 102.028 43.24C102.574 42.84 102.934 42.2867 103.108 41.58H106.068C105.801 43.0333 105.128 44.1733 104.048 45C102.968 45.8267 101.574 46.24 99.8675 46.24ZM99.5875 31.1L96.6275 29.5V27.58L99.5875 29.3L102.528 27.58V29.5L99.5875 31.1ZM108.333 46V32H111.033V37.54L116.093 32H119.413L114.273 37.54L119.573 46H116.273L112.333 39.64L111.033 41.04V46H108.333ZM121.36 46V32H124.06V46H121.36ZM135.571 46V32H138.271V46H135.571ZM126.751 46V32H129.451V46H126.751ZM129.071 39.94V37.76H136.031V39.94H129.071ZM145.676 46V32H150.936C152.056 32 152.99 32.1933 153.736 32.58C154.483 32.9533 155.036 33.4667 155.396 34.12C155.756 34.7733 155.936 35.52 155.936 36.36C155.936 37.12 155.763 37.8333 155.416 38.5C155.07 39.1533 154.523 39.68 153.776 40.08C153.043 40.48 152.096 40.68 150.936 40.68H148.376V46H145.676ZM148.376 38.5H150.756C151.623 38.5 152.243 38.3067 152.616 37.92C153.003 37.5333 153.196 37.0133 153.196 36.36C153.196 35.68 153.003 35.1533 152.616 34.78C152.243 34.3933 151.623 34.2 150.756 34.2H148.376V38.5ZM157.923 46V32H160.623V43.9H166.763V46H157.923ZM169.055 46V32H171.755V46H169.055ZM174.446 46V32H177.146L183.586 41.66V32H186.286V46H183.586L177.146 36.38V46H174.446ZM195.497 46.24C194.124 46.24 192.911 45.9333 191.857 45.32C190.817 44.7067 189.997 43.86 189.397 42.78C188.811 41.6867 188.517 40.4267 188.517 39C188.517 37.5733 188.811 36.32 189.397 35.24C189.997 34.1467 190.817 33.2933 191.857 32.68C192.911 32.0667 194.124 31.76 195.497 31.76C196.884 31.76 198.104 32.0667 199.157 32.68C200.211 33.2933 201.031 34.1467 201.617 35.24C202.204 36.32 202.497 37.5733 202.497 39C202.497 40.4267 202.204 41.6867 201.617 42.78C201.031 43.86 200.211 44.7067 199.157 45.32C198.104 45.9333 196.884 46.24 195.497 46.24ZM195.497 43.82C196.364 43.82 197.111 43.6267 197.737 43.24C198.377 42.84 198.871 42.28 199.217 41.56C199.564 40.84 199.737 39.9867 199.737 39C199.737 38 199.564 37.1467 199.217 36.44C198.871 35.72 198.377 35.1667 197.737 34.78C197.111 34.3933 196.364 34.2 195.497 34.2C194.644 34.2 193.897 34.3933 193.257 34.78C192.631 35.1667 192.144 35.72 191.797 36.44C191.451 37.1467 191.277 38 191.277 39C191.277 39.9867 191.451 40.84 191.797 41.56C192.144 42.28 192.631 42.84 193.257 43.24C193.897 43.6267 194.644 43.82 195.497 43.82ZM208.31 46L203.23 32H206.11L209.97 43.24L213.87 32H216.73L211.63 46H208.31ZM215.733 46L220.853 32H223.913L229.013 46H226.153L222.353 35.08L218.553 46H215.733ZM217.993 42.82L218.713 40.72H225.833L226.533 42.82H217.993Z" fill="#241147"/>
</svg>
