<svg width="46" height="46" viewBox="0 0 46 46" fill="none" xmlns="http://www.w3.org/2000/svg">
<path fill-rule="evenodd" clip-rule="evenodd" d="M3 0.000183105C1.34315 0.000183105 0 1.34333 0 3.00019V18.9307C0 20.5875 1.34315 21.9307 3 21.9307H18.9305C20.5874 21.9307 21.9305 20.5875 21.9305 18.9307V3.00018C21.9305 1.34333 20.5874 0.000183105 18.9305 0.000183105H3ZM19 2.99053H3V18.94H19V2.99053Z" fill="#241147"/>
<path fill-rule="evenodd" clip-rule="evenodd" d="M3 24.0694C1.34315 24.0694 0 25.4125 0 27.0694V42.9999C0 44.6567 1.34315 45.9999 3 45.9999H18.9305C20.5874 45.9999 21.9305 44.6567 21.9305 42.9999V27.0694C21.9305 25.4125 20.5874 24.0694 18.9305 24.0694H3ZM19 26.9147H3V42.8642H19V26.9147Z" fill="#241147"/>
<path fill-rule="evenodd" clip-rule="evenodd" d="M26.9241 24.0694C25.2672 24.0694 23.9241 25.4125 23.9241 27.0694V42.9999C23.9241 44.6567 25.2672 45.9999 26.9241 45.9999H42.8546C44.5114 45.9999 45.8546 44.6567 45.8546 42.9999V27.0694C45.8546 25.4125 44.5114 24.0694 42.8546 24.0694H26.9241ZM43 26.9147H27V42.8642H43V26.9147Z" fill="#241147"/>
<rect x="23.9241" y="11.0378" width="15.6099" height="15.6099" rx="3" transform="rotate(-45 23.9241 11.0378)" fill="#241147"/>
</svg>
