<svg width="239" height="53" viewBox="0 0 239 53" fill="none" xmlns="http://www.w3.org/2000/svg">
<path d="M2.20766 20.3458V6.34582H4.90766V11.8858L9.96766 6.34582H13.2877L8.14766 11.8858L13.4477 20.3458H10.1477L6.20766 13.9858L4.90766 15.3858V20.3458H2.20766ZM14.315 20.3458L19.435 6.34582H22.495L27.595 20.3458H24.735L20.935 9.42583L17.135 20.3458H14.315ZM16.575 17.1658L17.295 15.0658H24.415L25.115 17.1658H16.575ZM29.3952 20.3458V6.34582H32.0952V18.2458H38.2352V20.3458H29.3952ZM40.528 20.3458V6.34582H43.228V11.8858L48.288 6.34582H51.608L46.468 11.8858L51.768 20.3458H48.468L44.528 13.9858L43.228 15.3858V20.3458H40.528ZM58.9953 20.5858C57.9686 20.5858 57.0353 20.3792 56.1953 19.9658C55.3553 19.5525 54.6886 18.9325 54.1953 18.1058C53.702 17.2792 53.4553 16.2258 53.4553 14.9458V6.34582H56.1553V14.9658C56.1553 15.6592 56.2686 16.2458 56.4953 16.7258C56.722 17.1925 57.0486 17.5392 57.4753 17.7658C57.9153 17.9925 58.4353 18.1058 59.0353 18.1058C59.6486 18.1058 60.1686 17.9925 60.5953 17.7658C61.0353 17.5392 61.3686 17.1925 61.5953 16.7258C61.8353 16.2458 61.9553 15.6592 61.9553 14.9658V6.34582H64.6553V14.9458C64.6553 16.2258 64.3953 17.2792 63.8753 18.1058C63.3686 18.9325 62.6886 19.5525 61.8353 19.9658C60.982 20.3792 60.0353 20.5858 58.9953 20.5858ZM67.2467 20.3458V6.34582H69.9467V18.2458H76.0867V20.3458H67.2467ZM77.4595 20.3458L82.5795 6.34582H85.6395L90.7395 20.3458H87.8795L84.0795 9.42583L80.2795 20.3458H77.4595ZM79.7195 17.1658L80.4395 15.0658H87.5595L88.2595 17.1658H79.7195ZM94.3153 20.3458V8.52582H90.2153V6.34582H101.095V8.52582H96.9953V20.3458H94.3153ZM109.021 20.5858C107.647 20.5858 106.434 20.2792 105.381 19.6658C104.341 19.0525 103.521 18.2058 102.921 17.1258C102.334 16.0325 102.041 14.7725 102.041 13.3458C102.041 11.9192 102.334 10.6658 102.921 9.58582C103.521 8.49249 104.341 7.63916 105.381 7.02583C106.434 6.41249 107.647 6.10582 109.021 6.10582C110.407 6.10582 111.627 6.41249 112.681 7.02583C113.734 7.63916 114.554 8.49249 115.141 9.58582C115.727 10.6658 116.021 11.9192 116.021 13.3458C116.021 14.7725 115.727 16.0325 115.141 17.1258C114.554 18.2058 113.734 19.0525 112.681 19.6658C111.627 20.2792 110.407 20.5858 109.021 20.5858ZM109.021 18.1658C109.887 18.1658 110.634 17.9725 111.261 17.5858C111.901 17.1858 112.394 16.6258 112.741 15.9058C113.087 15.1858 113.261 14.3325 113.261 13.3458C113.261 12.3458 113.087 11.4925 112.741 10.7858C112.394 10.0658 111.901 9.51249 111.261 9.12582C110.634 8.73916 109.887 8.54582 109.021 8.54582C108.167 8.54582 107.421 8.73916 106.781 9.12582C106.154 9.51249 105.667 10.0658 105.321 10.7858C104.974 11.4925 104.801 12.3458 104.801 13.3458C104.801 14.3325 104.974 15.1858 105.321 15.9058C105.667 16.6258 106.154 17.1858 106.781 17.5858C107.421 17.9725 108.167 18.1658 109.021 18.1658ZM118.282 20.3458V6.34582H123.502C124.635 6.34582 125.569 6.53916 126.302 6.92583C127.035 7.31249 127.582 7.83249 127.942 8.48582C128.302 9.12582 128.482 9.83916 128.482 10.6258C128.482 11.3725 128.309 12.0725 127.962 12.7258C127.615 13.3658 127.069 13.8858 126.322 14.2858C125.589 14.6725 124.642 14.8658 123.482 14.8658H120.982V20.3458H118.282ZM125.542 20.3458L122.662 14.1858H125.582L128.622 20.3458H125.542ZM120.982 12.9058H123.342C124.155 12.9058 124.755 12.7058 125.142 12.3058C125.529 11.9058 125.722 11.3792 125.722 10.7258C125.722 10.0725 125.529 9.55916 125.142 9.18582C124.769 8.79916 124.169 8.60582 123.342 8.60582H120.982V12.9058ZM135.567 20.3458V6.34582H140.827C141.947 6.34582 142.88 6.53916 143.627 6.92583C144.374 7.29916 144.927 7.81249 145.287 8.46582C145.647 9.11916 145.827 9.86582 145.827 10.7058C145.827 11.4658 145.654 12.1792 145.307 12.8458C144.96 13.4992 144.414 14.0258 143.667 14.4258C142.934 14.8258 141.987 15.0258 140.827 15.0258H138.267V20.3458H135.567ZM138.267 12.8458H140.647C141.514 12.8458 142.134 12.6525 142.507 12.2658C142.894 11.8792 143.087 11.3592 143.087 10.7058C143.087 10.0258 142.894 9.49916 142.507 9.12582C142.134 8.73916 141.514 8.54582 140.647 8.54582H138.267V12.8458ZM147.813 20.3458V6.34582H153.033C154.166 6.34582 155.1 6.53916 155.833 6.92583C156.566 7.31249 157.113 7.83249 157.473 8.48582C157.833 9.12582 158.013 9.83916 158.013 10.6258C158.013 11.3725 157.84 12.0725 157.493 12.7258C157.146 13.3658 156.6 13.8858 155.853 14.2858C155.12 14.6725 154.173 14.8658 153.013 14.8658H150.513V20.3458H147.813ZM155.073 20.3458L152.193 14.1858H155.113L158.153 20.3458H155.073ZM150.513 12.9058H152.873C153.686 12.9058 154.286 12.7058 154.673 12.3058C155.06 11.9058 155.253 11.3792 155.253 10.7258C155.253 10.0725 155.06 9.55916 154.673 9.18582C154.3 8.79916 153.7 8.60582 152.873 8.60582H150.513V12.9058ZM166.911 20.5858C165.538 20.5858 164.325 20.2792 163.271 19.6658C162.231 19.0525 161.411 18.2058 160.811 17.1258C160.225 16.0325 159.931 14.7725 159.931 13.3458C159.931 11.9192 160.225 10.6658 160.811 9.58582C161.411 8.49249 162.231 7.63916 163.271 7.02583C164.325 6.41249 165.538 6.10582 166.911 6.10582C168.298 6.10582 169.518 6.41249 170.571 7.02583C171.625 7.63916 172.445 8.49249 173.031 9.58582C173.618 10.6658 173.911 11.9192 173.911 13.3458C173.911 14.7725 173.618 16.0325 173.031 17.1258C172.445 18.2058 171.625 19.0525 170.571 19.6658C169.518 20.2792 168.298 20.5858 166.911 20.5858ZM166.911 18.1658C167.778 18.1658 168.525 17.9725 169.151 17.5858C169.791 17.1858 170.285 16.6258 170.631 15.9058C170.978 15.1858 171.151 14.3325 171.151 13.3458C171.151 12.3458 170.978 11.4925 170.631 10.7858C170.285 10.0658 169.791 9.51249 169.151 9.12582C168.525 8.73916 167.778 8.54582 166.911 8.54582C166.058 8.54582 165.311 8.73916 164.671 9.12582C164.045 9.51249 163.558 10.0658 163.211 10.7858C162.865 11.4925 162.691 12.3458 162.691 13.3458C162.691 14.3325 162.865 15.1858 163.211 15.9058C163.558 16.6258 164.045 17.1858 164.671 17.5858C165.311 17.9725 166.058 18.1658 166.911 18.1658ZM182.493 20.5858C181.093 20.5858 179.886 20.2858 178.873 19.6858C177.859 19.0725 177.079 18.2258 176.533 17.1458C175.986 16.0525 175.713 14.7925 175.713 13.3658C175.713 11.9392 175.986 10.6792 176.533 9.58582C177.079 8.49249 177.859 7.63916 178.873 7.02583C179.886 6.41249 181.093 6.10582 182.493 6.10582C184.199 6.10582 185.593 6.52582 186.673 7.36582C187.753 8.20582 188.426 9.39249 188.693 10.9258H185.733C185.559 10.1792 185.199 9.59916 184.653 9.18582C184.106 8.75916 183.379 8.54582 182.473 8.54582C181.633 8.54582 180.913 8.74582 180.313 9.14583C179.713 9.53249 179.253 10.0858 178.933 10.8058C178.626 11.5125 178.473 12.3658 178.473 13.3658C178.473 14.3525 178.626 15.2058 178.933 15.9258C179.253 16.6458 179.713 17.1992 180.313 17.5858C180.913 17.9725 181.633 18.1658 182.473 18.1658C183.379 18.1658 184.106 17.9725 184.653 17.5858C185.199 17.1858 185.559 16.6325 185.733 15.9258H188.693C188.426 17.3792 187.753 18.5192 186.673 19.3458C185.593 20.1725 184.199 20.5858 182.493 20.5858ZM194.698 20.5858C193.791 20.5858 192.991 20.4125 192.298 20.0658C191.618 19.7192 191.084 19.2125 190.698 18.5458C190.324 17.8658 190.138 17.0458 190.138 16.0858H192.838C192.838 16.5125 192.904 16.8858 193.038 17.2058C193.171 17.5125 193.364 17.7525 193.618 17.9258C193.884 18.0858 194.224 18.1658 194.638 18.1658C195.024 18.1658 195.344 18.0925 195.598 17.9458C195.851 17.7858 196.031 17.5658 196.138 17.2858C196.258 16.9925 196.318 16.6458 196.318 16.2458V6.34582H199.018V16.2458C199.018 17.6458 198.624 18.7192 197.838 19.4658C197.064 20.2125 196.018 20.5858 194.698 20.5858ZM201.739 20.3458V6.34582H210.939V8.52582H204.439V12.1858H210.339V14.2858H204.439V18.1658H210.939V20.3458H201.739ZM213.36 20.3458V6.34582H216.06L222.5 16.0058V6.34582H225.2V20.3458H222.5L216.06 10.7258V20.3458H213.36ZM227.891 20.3458V6.34582H237.091V8.52582H230.591V12.1858H236.491V14.2858H230.591V18.1658H237.091V20.3458H227.891Z" fill="#1E1E1E"/>
<path d="M2.28773 46.3458V32.3458H4.98773V37.8858L10.0477 32.3458H13.3677L8.22773 37.8858L13.5277 46.3458H10.2277L6.28773 39.9858L4.98773 41.3858V46.3458H2.28773ZM15.3151 46.3458V32.3458H18.0151V44.2458H24.1551V46.3458H15.3151ZM26.4479 46.3458V32.3458H29.1479V46.3458H26.4479ZM31.8385 46.3458V32.3458H35.0585L39.3785 41.0658L43.6585 32.3458H46.8785V46.3458H44.1785V36.9258L40.4385 44.3658H38.2985L34.5385 36.9258V46.3458H31.8385ZM48.6724 46.3458L53.7924 32.3458H56.8524L61.9524 46.3458H59.0924L55.2924 35.4258L51.4924 46.3458H48.6724ZM50.9324 43.1658L51.6524 41.0658H58.7724L59.4724 43.1658H50.9324ZM65.5282 46.3458V34.5258H61.4282V32.3458H72.3082V34.5258H68.2082V46.3458H65.5282ZM78.8655 46.5858C77.8522 46.5858 76.9455 46.4125 76.1455 46.0658C75.3589 45.7192 74.7322 45.2125 74.2655 44.5458C73.8122 43.8792 73.5789 43.0725 73.5655 42.1258H76.4255C76.4389 42.5392 76.5455 42.9125 76.7455 43.2458C76.9455 43.5792 77.2189 43.8458 77.5655 44.0458C77.9255 44.2325 78.3522 44.3258 78.8455 44.3258C79.2722 44.3258 79.6389 44.2592 79.9455 44.1258C80.2655 43.9792 80.5122 43.7792 80.6855 43.5258C80.8589 43.2725 80.9455 42.9725 80.9455 42.6258C80.9455 42.2125 80.8455 41.8725 80.6455 41.6058C80.4589 41.3392 80.1922 41.1125 79.8455 40.9258C79.4989 40.7392 79.0989 40.5725 78.6455 40.4258C78.2055 40.2658 77.7389 40.1058 77.2455 39.9458C76.1522 39.5858 75.3122 39.1058 74.7255 38.5058C74.1522 37.9058 73.8655 37.1125 73.8655 36.1258C73.8655 35.2858 74.0655 34.5658 74.4655 33.9658C74.8789 33.3658 75.4455 32.9058 76.1655 32.5858C76.8855 32.2658 77.7055 32.1058 78.6255 32.1058C79.5722 32.1058 80.3989 32.2725 81.1055 32.6058C81.8255 32.9258 82.3922 33.3925 82.8055 34.0058C83.2322 34.6192 83.4522 35.3392 83.4655 36.1658H80.5855C80.5722 35.8592 80.4789 35.5725 80.3055 35.3058C80.1455 35.0258 79.9189 34.8058 79.6255 34.6458C79.3322 34.4725 78.9855 34.3858 78.5855 34.3858C78.2389 34.3725 77.9189 34.4258 77.6255 34.5458C77.3455 34.6658 77.1189 34.8458 76.9455 35.0858C76.7855 35.3125 76.7055 35.5992 76.7055 35.9458C76.7055 36.2792 76.7855 36.5592 76.9455 36.7858C77.1189 37.0125 77.3522 37.2125 77.6455 37.3858C77.9389 37.5458 78.2855 37.6992 78.6855 37.8458C79.0855 37.9792 79.5189 38.1192 79.9855 38.2658C80.6789 38.5058 81.3189 38.7925 81.9055 39.1258C82.4922 39.4458 82.9589 39.8658 83.3055 40.3858C83.6522 40.9058 83.8255 41.5925 83.8255 42.4458C83.8255 43.1792 83.6322 43.8592 83.2455 44.4858C82.8589 45.1125 82.2989 45.6192 81.5655 46.0058C80.8455 46.3925 79.9455 46.5858 78.8655 46.5858ZM86.0768 46.3458V32.3458H88.7768V37.8858L93.8368 32.3458H97.1568L92.0168 37.8858L97.3168 46.3458H94.0168L90.0768 39.9858L88.7768 41.3858V46.3458H86.0768ZM99.1041 46.3458V32.3458H101.804V46.3458H99.1041ZM113.315 46.3458V32.3458H116.015V46.3458H113.315ZM104.495 46.3458V32.3458H107.195V46.3458H104.495ZM106.815 40.2858V38.1058H113.775V40.2858H106.815ZM123.421 46.3458V32.3458H128.641C129.774 32.3458 130.707 32.5392 131.441 32.9258C132.174 33.3125 132.721 33.8325 133.081 34.4858C133.441 35.1258 133.621 35.8392 133.621 36.6258C133.621 37.3725 133.447 38.0725 133.101 38.7258C132.754 39.3658 132.207 39.8858 131.461 40.2858C130.727 40.6725 129.781 40.8658 128.621 40.8658H126.121V46.3458H123.421ZM130.681 46.3458L127.801 40.1858H130.721L133.761 46.3458H130.681ZM126.121 38.9058H128.481C129.294 38.9058 129.894 38.7058 130.281 38.3058C130.667 37.9058 130.861 37.3792 130.861 36.7258C130.861 36.0725 130.667 35.5592 130.281 35.1858C129.907 34.7992 129.307 34.6058 128.481 34.6058H126.121V38.9058ZM135.999 46.3458V32.3458H138.699V46.3458H135.999ZM140.989 46.3458V44.2658L147.389 34.5858H141.029V32.3458H150.509V34.4258L144.069 44.1058H150.529V46.3458H140.989ZM152.854 46.3458V32.3458H155.554V46.3458H152.854ZM158.245 46.3458V32.3458H160.945V37.8858L166.005 32.3458H169.325L164.185 37.8858L169.485 46.3458H166.185L162.245 39.9858L160.945 41.3858V46.3458H158.245ZM170.352 46.3458L175.472 32.3458H178.532L183.632 46.3458H180.772L176.972 35.4258L173.172 46.3458H170.352ZM172.612 43.1658L173.332 41.0658H180.452L181.152 43.1658H172.612Z" fill="#14521C"/>
</svg>
