<svg width="207" height="191" xmlns="http://www.w3.org/2000/svg" xmlns:xlink="http://www.w3.org/1999/xlink" xml:space="preserve" overflow="hidden"><g transform="translate(-209 -1054)"><path d="M182.047 17.9062 128.328 17.9062C126.681 17.9062 125.344 19.2403 125.344 20.8906L125.344 71.625 74.6094 71.625C72.962 71.625 71.625 72.959 71.625 74.6094L71.625 125.344 20.8906 125.344C19.2432 125.344 17.9062 126.678 17.9062 128.328L17.9062 182.047C17.9062 183.697 19.2432 185.031 20.8906 185.031L182.047 185.031C183.694 185.031 185.031 183.697 185.031 182.047L185.031 20.8906C185.031 19.2403 183.694 17.9062 182.047 17.9062ZM59.6875 179.062 35.8125 179.062 35.8125 170.109C35.8125 165.173 39.8295 161.156 44.7656 161.156L50.7344 161.156C55.6705 161.156 59.6875 165.173 59.6875 170.109L59.6875 179.062ZM41.7812 149.219C41.7812 145.927 44.4582 143.25 47.75 143.25 51.0418 143.25 53.7188 145.927 53.7188 149.219 53.7188 152.511 51.0418 155.188 47.75 155.188 44.4582 155.188 41.7812 152.511 41.7812 149.219ZM71.625 179.062 65.6562 179.062 65.6562 170.109C65.6562 164.141 62.1108 159.016 57.0344 156.632 58.6668 154.588 59.6875 152.033 59.6875 149.219 59.6875 142.635 54.3335 137.281 47.75 137.281 41.1665 137.281 35.8125 142.635 35.8125 149.219 35.8125 152.033 36.8332 154.588 38.4656 156.632 33.3892 159.016 29.8438 164.141 29.8438 170.109L29.8438 179.062 23.875 179.062 23.875 131.312 71.625 131.312 71.625 179.062ZM125.344 179.062 77.5938 179.062 77.5938 131.312 125.344 131.312 125.344 179.062ZM125.344 125.344 77.5938 125.344 77.5938 77.5938 125.344 77.5938 125.344 125.344ZM179.062 179.062 131.312 179.062 131.312 131.312 179.062 131.312 179.062 179.062ZM179.062 125.344 131.312 125.344 131.312 77.5938 179.062 77.5938 179.062 125.344ZM179.062 71.625 131.312 71.625 131.312 23.875 179.062 23.875 179.062 71.625Z" stroke="#196B24" stroke-width="1.407" fill="#13501B" transform="matrix(1.08377 0 0 1 209 1054)"/><path d="M170.56 41.2769 161.825 39.9429 157.891 31.5598C157.399 30.5152 156.345 29.8438 155.188 29.8438 154.03 29.8438 152.976 30.5152 152.487 31.5598L148.553 39.9429 139.818 41.2769C138.711 41.447 137.795 42.217 137.439 43.2794 137.084 44.3418 137.353 45.5087 138.132 46.3115L144.539 52.8801 143.02 62.1914C142.835 63.3195 143.313 64.4535 144.247 65.1131 145.181 65.7726 146.407 65.8413 147.41 65.2862L155.188 60.9857 162.965 65.2832C163.418 65.5339 163.914 65.6562 164.409 65.6562 165.012 65.6562 165.615 65.4712 166.128 65.1101 167.062 64.4506 167.54 63.3165 167.355 62.1884L165.836 52.8772 172.243 46.3085C173.025 45.5057 173.294 44.3389 172.936 43.2764 172.577 42.214 171.664 41.447 170.56 41.2769ZM160.512 49.7913C159.849 50.4718 159.551 51.4208 159.703 52.3549L160.476 57.0881 156.632 54.9632C156.181 54.7155 155.686 54.5902 155.188 54.5902 154.689 54.5902 154.194 54.7155 153.743 54.9632L149.899 57.0881 150.672 52.3549C150.824 51.4208 150.526 50.4688 149.863 49.7913L146.458 46.3026 151.027 45.6042C152.012 45.455 152.857 44.8223 153.277 43.924L155.188 39.8533 157.098 43.921C157.521 44.8223 158.366 45.455 159.348 45.6012L163.917 46.2996 160.512 49.7913Z" stroke="#196B24" stroke-width="1.407" fill="#13501B" transform="matrix(1.08377 0 0 1 209 1054)"/><path d="M101.469 83.5625C91.5935 83.5625 83.5625 91.5935 83.5625 101.469 83.5625 111.344 91.5935 119.375 101.469 119.375 111.344 119.375 119.375 111.344 119.375 101.469 119.375 91.5935 111.344 83.5625 101.469 83.5625ZM112.982 98.4844 104.453 98.4844 104.453 89.955C108.628 91.0413 111.896 94.3092 112.982 98.4844ZM101.469 113.406C94.8852 113.406 89.5312 108.052 89.5312 101.469 89.5312 95.9208 93.3512 91.289 98.4844 89.955L98.4844 101.469C98.4844 103.119 99.8214 104.453 101.469 104.453L112.982 104.453C111.648 109.589 107.014 113.406 101.469 113.406Z" stroke="#196B24" stroke-width="1.407" fill="#13501B" transform="matrix(1.08377 0 0 1 209 1054)"/><path d="M101.469 146.234C103.113 146.234 104.453 147.571 104.453 149.219L110.422 149.219C110.422 145.333 107.918 142.05 104.453 140.815L104.453 137.281 98.4844 137.281 98.4844 140.815C95.0195 142.05 92.5156 145.333 92.5156 149.219 92.5156 154.155 96.5326 158.172 101.469 158.172 103.113 158.172 104.453 159.509 104.453 161.156 104.453 162.804 103.113 164.141 101.469 164.141 99.8244 164.141 98.4844 162.804 98.4844 161.156L92.5156 161.156C92.5156 165.042 95.0195 168.325 98.4844 169.56L98.4844 173.094 104.453 173.094 104.453 169.56C107.918 168.325 110.422 165.042 110.422 161.156 110.422 156.22 106.405 152.203 101.469 152.203 99.8244 152.203 98.4844 150.866 98.4844 149.219 98.4844 147.571 99.8244 146.234 101.469 146.234Z" stroke="#196B24" stroke-width="1.407" fill="#13501B" transform="matrix(1.08377 0 0 1 209 1054)"/><path d="M164.881 86.908 150.108 89.0179C148.989 89.1791 148.055 89.955 147.7 91.0294 147.345 92.1038 147.622 93.2856 148.422 94.0824L152.642 98.3023 139.979 110.962 144.199 115.182 156.862 102.522 161.082 106.742C161.649 107.309 162.413 107.617 163.192 107.617 163.508 107.617 163.824 107.566 164.135 107.461 165.206 107.106 165.985 106.172 166.143 105.053L168.253 90.2833C168.387 89.3522 168.074 88.4151 167.409 87.7496 166.749 87.093 165.815 86.7767 164.881 86.908ZM161.082 98.3023 156.862 94.0824 161.783 93.3811 161.082 98.3023Z" stroke="#196B24" stroke-width="1.407" fill="#13501B" transform="matrix(1.08377 0 0 1 209 1054)"/><path d="M140.266 158.172 146.234 158.172 146.234 173.094 140.266 173.094Z" stroke="#196B24" stroke-width="1.407" fill="#13501B" transform="matrix(1.08377 0 0 1 209 1054)"/><path d="M152.203 149.219 158.172 149.219 158.172 173.094 152.203 173.094Z" stroke="#196B24" stroke-width="1.407" fill="#13501B" transform="matrix(1.08377 0 0 1 209 1054)"/><path d="M164.141 140.266 170.109 140.266 170.109 173.094 164.141 173.094Z" stroke="#196B24" stroke-width="1.407" fill="#13501B" transform="matrix(1.08377 0 0 1 209 1054)"/><path d="M38.7969 53.7188C47.0248 53.7188 53.7188 47.0248 53.7188 38.7969 53.7188 30.569 47.0248 23.875 38.7969 23.875 30.569 23.875 23.875 30.569 23.875 38.7969 23.875 47.0248 30.569 53.7188 38.7969 53.7188ZM38.7969 29.8438C43.733 29.8438 47.75 33.8607 47.75 38.7969 47.75 43.733 43.733 47.75 38.7969 47.75 33.8607 47.75 29.8438 43.733 29.8438 38.7969 29.8438 33.8607 33.8607 29.8438 38.7969 29.8438Z" stroke="#196B24" stroke-width="1.407" fill="#13501B" transform="matrix(1.08377 0 0 1 209 1054)"/><path d="M8.95312 47.75 13.5431 47.8783C13.8296 48.6841 14.1549 49.463 14.5787 50.3554L11.3645 53.5695C10.8034 54.1306 10.4901 54.8856 10.4901 55.6795 10.4901 56.4733 10.8034 57.2314 11.3645 57.7894L19.8073 66.2292C20.9742 67.3961 22.8603 67.3961 24.0272 66.2292L27.3637 63.0748C28.1307 63.4359 28.9186 63.7612 29.8467 64.0895L29.8467 68.6406C29.8467 70.291 31.1837 71.625 32.8311 71.625L44.7686 71.625C46.416 71.625 47.753 70.291 47.753 68.6406L47.8753 64.0536C48.6811 63.7642 49.466 63.4389 50.3583 63.0151L53.5725 66.2292C54.7394 67.3961 56.6255 67.3961 57.7924 66.2292L66.2352 57.7894C66.7963 57.2284 67.1096 56.4733 67.1096 55.6795 67.1096 54.8856 66.7963 54.1276 66.2352 53.5695L63.0837 50.23C63.4418 49.463 63.7671 48.6811 64.0954 47.75L68.6406 47.75C70.288 47.75 71.625 46.416 71.625 44.7656L71.625 32.8281C71.625 31.1778 70.288 29.8438 68.6406 29.8438L64.0507 29.7154C63.7642 28.9096 63.4389 28.1307 63.0151 27.2384L66.2292 24.0242C66.7903 23.4632 67.1037 22.7081 67.1037 21.9143 67.1037 21.1204 66.7903 20.3624 66.2292 19.8043L57.7865 11.3645C56.6196 10.1976 54.7334 10.1976 53.5665 11.3645L50.23 14.519C49.463 14.1579 48.6752 13.8326 47.747 13.5043L47.747 8.95312C47.747 7.30277 46.41 5.96875 44.7626 5.96875L32.8251 5.96875C31.1778 5.96875 29.8408 7.30277 29.8408 8.95312L29.7214 13.5401C28.9156 13.8296 28.1307 14.1549 27.2384 14.5787L24.0242 11.3645C22.8573 10.1976 20.9712 10.1976 19.8043 11.3645L11.3645 19.8043C10.8034 20.3624 10.4901 21.1204 10.4901 21.9143 10.4901 22.7081 10.8034 23.4632 11.3645 24.0242L14.516 27.3637C14.1549 28.1307 13.8296 28.9126 13.5013 29.8438L8.95312 29.8438C7.30575 29.8438 5.96875 31.1778 5.96875 32.8281L5.96875 44.7656C5.96875 46.416 7.30575 47.75 8.95312 47.75ZM11.9375 35.8125 13.5013 35.8125C16.0112 35.8125 18.2853 34.1711 19.1597 31.7329 19.3835 31.1091 19.6372 30.4973 19.9147 29.9094 21.0219 27.5637 20.5743 24.7942 18.7986 23.0185L17.6944 21.9143 21.9172 17.6944 23.0215 18.7986C24.8181 20.5982 27.5219 21.0398 29.9124 19.9147 30.5033 19.6342 31.1061 19.3835 31.7358 19.1627 34.2099 18.2703 35.8125 16.05 35.8125 13.5013L35.8125 11.9375 41.7812 11.9375 41.7812 13.5013C41.7812 16.05 43.3839 18.2703 45.8698 19.1627 46.4906 19.3805 47.0934 19.6312 47.6903 19.9147 50.0748 21.0339 52.7787 20.5922 54.5753 18.7956L55.6795 17.6914 59.9024 21.9113 58.7982 23.0155C57.0225 24.7912 56.5748 27.5577 57.679 29.9034 57.9595 30.4943 58.2132 31.1061 58.4341 31.7299 59.3115 34.1711 61.5826 35.8125 64.0924 35.8125L65.6562 35.8125 65.6562 41.7812 64.0924 41.7812C61.5826 41.7812 59.3085 43.4227 58.4341 45.8609 58.2102 46.4846 57.9566 47.0964 57.679 47.6843 56.5718 50.0301 57.0195 52.7996 58.7952 54.5753L59.8994 55.6795 55.6765 59.8994 54.5723 58.7952C52.7757 56.9956 50.0718 56.5539 47.6814 57.679 47.0905 57.9595 46.4876 58.2102 45.8579 58.4311 43.3839 59.3234 41.7812 61.5438 41.7812 64.0924L41.7812 65.6562 35.8125 65.6562 35.8125 64.0924C35.8125 61.5438 34.2099 59.3234 31.7239 58.4311 31.1032 58.2132 30.5003 57.9625 29.9034 57.679 27.5189 56.5629 24.8121 56.9986 23.0185 58.7982L21.9143 59.9024 17.6914 55.6825 18.7956 54.5783C20.5713 52.8025 21.019 50.036 19.9147 47.6903 19.6342 47.0994 19.3805 46.4876 19.1597 45.8639 18.2823 43.4227 16.0112 41.7812 13.5013 41.7812L11.9375 41.7812 11.9375 35.8125Z" stroke="#196B24" stroke-width="1.407" fill="#13501B" transform="matrix(1.08377 0 0 1 209 1054)"/></g></svg>